# xmcd
#
# Track frame offsets: 
#        150
#        18914
#        31231
#        45216
#        61871
#        71152
#        81799
#        95079
#        106551
#        118690
#        134284
#        146308
#        157571
#        169277
#
# Disc length: 2427 seconds
#
# Revision: 0
# Processed by: cddbd v1.5.2PL0 Copyright (c) Steve Scherf et al.
# Submitted via: ExactAudioCopyFreeDBPlugin 1.0
#
DISCID=a509790e
DTITLE=Blue Wolf - Red River Moon
DYEAR=2003
DGENRE=Bluegrass
TTITLE0=Coal Tattoo
TTITLE1=Red River Moon
TTITLE2=Stone's Rag
TTITLE3=New Patches
TTITLE4=Raz Ma Taz Polka
TTITLE5=Gosh I Miss You
TTITLE6=Blue Heartache
TTITLE7=Beaumont Rag
TTITLE8=Alone With You
TTITLE9=Blue Violet Waltz
TTITLE10=Black Mountain Rag
TTITLE11=I'll Love Nobody But You
TTITLE12=East Tennessee Blues
TTITLE13=My Baby Came Back
EXTD=
EXTT0=
EXTT1=
EXTT2=
EXTT3=
EXTT4=
EXTT5=
EXTT6=
EXTT7=
EXTT8=
EXTT9=
EXTT10=
EXTT11=
EXTT12=
EXTT13=
PLAYORDER=
